<svg version="1.1" id="Layer_1" xmlns="http://www.w3.org/2000/svg" xmlns:xlink="http://www.w3.org/1999/xlink" x="0px" y="0px"
	 width="100%" viewBox="0 0 475 327" enable-background="new 0 0 475 327" xml:space="preserve">
<path fill="#FEFEFE" opacity="1.000000" stroke="none" 
	d="
M343.000000,328.000000 
	C228.702148,328.000000 114.904289,328.000000 1.053218,328.000000 
	C1.053218,219.069473 1.053218,110.138916 1.053218,1.104177 
	C159.214478,1.104177 317.429047,1.104177 475.821808,1.104177 
	C475.821808,109.999756 475.821808,218.999863 475.821808,328.000000 
	C431.805634,328.000000 387.652832,328.000000 343.000000,328.000000 
M34.243790,256.499878 
	C34.243790,270.281219 34.243790,284.062561 34.243790,297.780304 
	C35.220543,298.005798 35.692963,298.209656 36.165646,298.210266 
	C53.995071,298.233917 71.825188,298.307495 89.652893,298.134918 
	C91.343834,298.118561 93.368019,296.897675 94.648163,295.637390 
	C106.279152,284.186890 117.764404,272.588562 129.321213,261.062500 
	C142.751907,247.667572 156.211716,234.301865 169.551666,221.030136 
	C155.683075,207.272873 142.139221,193.837738 127.421158,179.237823 
	C115.786491,191.004501 103.870369,203.055817 92.289673,214.767914 
	C92.289673,182.014694 92.289673,148.772095 92.289673,114.235680 
	C141.687408,163.697342 190.316895,212.389755 238.861557,260.997223 
	C252.584991,247.282898 265.991089,233.885727 279.918121,219.967926 
	C261.638214,201.869263 243.342270,183.754776 225.683670,166.271286 
	C230.348083,161.260788 234.727661,156.556244 239.219757,151.730850 
	C240.638229,153.086899 241.974533,154.314972 243.256683,155.597198 
	C289.657928,202.001801 336.073181,248.392456 382.397247,294.873993 
	C384.824127,297.309143 387.182465,298.370026 390.629517,298.327667 
	C405.290833,298.147491 419.955688,298.251556 434.619232,298.251831 
	C437.555420,298.251892 440.491608,298.251831 443.400238,298.251831 
	C443.400238,209.409149 443.400238,121.212860 443.400238,32.749577 
	C425.392670,32.749577 407.738281,32.629753 390.089386,32.887768 
	C387.638916,32.923595 384.621643,34.222065 382.870117,35.951939 
	C361.302887,57.252972 339.891296,78.712120 318.509857,100.200394 
	C310.441284,108.309273 302.553925,116.598495 293.734802,125.679955 
	C274.924835,106.646103 256.854401,88.360596 238.089462,69.372276 
	C219.871506,87.710472 201.836029,105.865013 183.114838,124.709770 
	C182.166748,123.444328 181.316910,121.973801 180.157547,120.812149 
	C155.449829,96.055321 130.141541,71.863144 106.243866,46.349289 
	C96.373138,35.811012 86.393311,31.099266 72.101860,32.497364 
	C59.757084,33.705029 47.200554,32.748158 34.243790,32.748158 
	C34.243790,107.291298 34.243790,181.395584 34.243790,256.499878 
z"/>
<path fill="#040404" opacity="1.000000" stroke="none" 
	d="
M34.243790,255.999878 
	C34.243790,181.395584 34.243790,107.291298 34.243790,32.748158 
	C47.200554,32.748158 59.757084,33.705029 72.101860,32.497364 
	C86.393311,31.099266 96.373138,35.811012 106.243866,46.349289 
	C130.141541,71.863144 155.449829,96.055321 180.157547,120.812149 
	C181.316910,121.973801 182.166748,123.444328 183.114838,124.709770 
	C201.836029,105.865013 219.871506,87.710472 238.089462,69.372276 
	C256.854401,88.360596 274.924835,106.646103 293.734802,125.679955 
	C302.553925,116.598495 310.441284,108.309273 318.509857,100.200394 
	C339.891296,78.712120 361.302887,57.252972 382.870117,35.951939 
	C384.621643,34.222065 387.638916,32.923595 390.089386,32.887768 
	C407.738281,32.629753 425.392670,32.749577 443.400238,32.749577 
	C443.400238,121.212860 443.400238,209.409149 443.400238,298.251831 
	C440.491608,298.251831 437.555420,298.251892 434.619232,298.251831 
	C419.955688,298.251556 405.290833,298.147491 390.629517,298.327667 
	C387.182465,298.370026 384.824127,297.309143 382.397247,294.873993 
	C336.073181,248.392456 289.657928,202.001801 243.256683,155.597198 
	C241.974533,154.314972 240.638229,153.086899 239.219757,151.730850 
	C234.727661,156.556244 230.348083,161.260788 225.683670,166.271286 
	C243.342270,183.754776 261.638214,201.869263 279.918121,219.967926 
	C265.991089,233.885727 252.584991,247.282898 238.861557,260.997223 
	C190.316895,212.389755 141.687408,163.697342 92.289673,114.235680 
	C92.289673,148.772095 92.289673,182.014694 92.289673,214.767914 
	C103.870369,203.055817 115.786491,191.004501 127.421158,179.237823 
	C142.139221,193.837738 155.683075,207.272873 169.551666,221.030136 
	C156.211716,234.301865 142.751907,247.667572 129.321213,261.062500 
	C117.764404,272.588562 106.279152,284.186890 94.648163,295.637390 
	C93.368019,296.897675 91.343834,298.118561 89.652893,298.134918 
	C71.825188,298.307495 53.995071,298.233917 36.165646,298.210266 
	C35.692963,298.209656 35.220543,298.005798 34.243790,297.780304 
	C34.243790,284.062561 34.243790,270.281219 34.243790,255.999878 
M357.396912,142.897324 
	C349.844879,150.301056 342.292847,157.704773 335.804443,164.065750 
	C352.989685,181.410919 369.597534,198.173355 385.575378,214.299896 
	C385.575378,181.975632 385.575378,148.674484 385.575378,114.504257 
	C375.934662,124.226044 366.920349,133.316147 357.396912,142.897324 
z"/>
<path fill="#FCFCFC" opacity="1.000000" stroke="none" 
	d="
M357.651489,142.651794 
	C366.920349,133.316147 375.934662,124.226044 385.575378,114.504257 
	C385.575378,148.674484 385.575378,181.975632 385.575378,214.299896 
	C369.597534,198.173355 352.989685,181.410919 335.804443,164.065750 
	C342.292847,157.704773 349.844879,150.301056 357.651489,142.651794 
z"/>
</svg>